# xmcd
# 
# Track frame offsets:
#     150
#     67693
#     170709
#     256719
# 
# Disc length: 4689
# 
# Revision: 0
# Processed by: cddbd v1.5.2PL0 Copyright (c) Steve Scherf et al.
# Submitted via: BonkEnc v1.0.8
# 
DISCID=29124f04
DTITLE=Yousef, Mosab Hassan - Son of Hamas Disc 04
DYEAR=2010
DGENRE=Speech
TTITLE0=Chapter14
TTITLE1=Chapter15
TTITLE2=Chapter16
TTITLE3=Chapter17
EXTD=
EXTT0=
EXTT1=
EXTT2=
EXTT3=
PLAYORDER=
